<svg width="300" height="300" viewBox="0 0 300 300" xmlns="http://www.w3.org/2000/svg">
  <rect width="100%" height="100%" fill="#000000"/> 

  <g fill="white">
    <path d="M 50 150 A 100 100 0 0 1 250 150 L 250 170 A 100 100 0 0 1 50 170 Z" />
    <path d="M 50 140 C 50 110, 70 90, 100 90 L 100 110 C 80 110, 70 120, 70 140 Z"/>
    <path d="M 250 140 C 250 110, 230 90, 200 90 L 200 110 C 220 110, 230 120, 230 140 Z"/>
    
    <rect x="35" y="140" width="30" height="50" rx="10" ry="10"/>
    <rect x="235" y="140" width="30" height="50" rx="10" ry="10"/>
  </g>
  
  <g fill="#FF6600">
    <path d="M 52 148 A 98 98 0 0 1 248 148 L 248 168 A 98 98 0 0 1 52 168 Z" />
    <path d="M 52 138 C 52 108, 72 88, 102 88 L 102 108 C 82 108, 72 118, 72 138 Z"/>
    <path d="M 248 138 C 248 108, 228 88, 198 88 L 198 108 C 218 108, 228 118, 228 138 Z"/>

    <rect x="37" y="142" width="26" height="46" rx="8" ry="8"/>
    <rect x="237" y="142" width="26" height="46" rx="8" ry="8"/>
  </g>

  <g text-anchor="middle" font-family="Arial, sans-serif">
    <text x="150" y="225" font-size="28" font-weight="bold" fill="#FF6600">ECHO</text>
    <text x="150" y="255" font-size="28" font-weight="bold" fill="#FF6600">BEATS</text>
    <text x="150" y="278" font-size="12" fill="white">- ESTD 2025 -</text>
  </g>
</svg>